<svg width="1200" height="900" viewBox="0 0 1200 900" fill="none" xmlns="http://www.w3.org/2000/svg">
  <rect width="1200" height="900" rx="48" fill="#112033"/>
  <circle cx="965" cy="176" r="208" fill="#F4B861" fill-opacity="0.85"/>
  <circle cx="258" cy="734" r="256" fill="#406BF0" fill-opacity="0.6"/>
  <rect x="104" y="116" width="486" height="668" rx="44" fill="#FAF7F0" fill-opacity="0.96"/>
  <rect x="160" y="188" width="210" height="28" rx="14" fill="#D0D7E3"/>
  <rect x="160" y="254" width="374" height="90" rx="28" fill="#112033"/>
  <rect x="160" y="380" width="160" height="122" rx="28" fill="#F4B861"/>
  <rect x="338" y="380" width="196" height="122" rx="28" fill="#E6ECF5"/>
  <rect x="160" y="536" width="374" height="182" rx="32" fill="#EDF2F9"/>
  <rect x="668" y="200" width="364" height="440" rx="42" fill="white" fill-opacity="0.13"/>
  <rect x="720" y="260" width="196" height="22" rx="11" fill="#D5DCEC"/>
  <rect x="720" y="320" width="260" height="96" rx="28" fill="#F4B861"/>
  <rect x="720" y="448" width="118" height="118" rx="28" fill="#406BF0"/>
  <rect x="862" y="448" width="118" height="118" rx="28" fill="#D8E2F4"/>
</svg>
